<svg id="undraw_icons_wdp4" xmlns="http://www.w3.org/2000/svg" width="291.336" height="191" viewBox="0 0 291.336 191">
  <path id="Path_72" data-name="Path 72" d="M565.765,237.983H548.438a3.832,3.832,0,0,1-3.828-3.828V216.828A3.832,3.832,0,0,1,548.438,213h17.327a3.832,3.832,0,0,1,3.828,3.828v17.327A3.832,3.832,0,0,1,565.765,237.983Zm-17.327-24.177a3.026,3.026,0,0,0-3.022,3.022v17.327a3.026,3.026,0,0,0,3.022,3.022h17.327a3.026,3.026,0,0,0,3.022-3.022V216.828a3.026,3.026,0,0,0-3.022-3.022Z" transform="translate(-421.262 -213)" fill="#ccc"/>
  <path id="Path_73" data-name="Path 73" d="M571.3,240.312H560.819a1.21,1.21,0,0,1-1.209-1.209V226.209A1.21,1.21,0,0,1,560.819,225h7.591a1.212,1.212,0,0,1,.757.267l2.885,2.319a1.2,1.2,0,0,1,.452.942V239.1A1.21,1.21,0,0,1,571.3,240.312Zm-10.477-14.506a.4.4,0,0,0-.4.4V239.1a.4.4,0,0,0,.4.4H571.3a.4.4,0,0,0,.4-.4V228.527a.4.4,0,0,0-.15-.314l-2.886-2.319a.4.4,0,0,0-.252-.089Z" transform="translate(-430.218 -220.165)" fill="#ccc"/>
  <path id="Path_74" data-name="Path 74" d="M573.46,237.806h-6.447a.4.4,0,1,1,0-.806h6.447a.4.4,0,0,1,0,.806Z" transform="translate(-434.397 -227.329)" fill="#ccc"/>
  <path id="Path_75" data-name="Path 75" d="M573.46,243.806h-6.447a.4.4,0,1,1,0-.806h6.447a.4.4,0,0,1,0,.806Z" transform="translate(-434.397 -230.911)" fill="#ccc"/>
  <path id="Path_76" data-name="Path 76" d="M573.46,249.806h-6.447a.4.4,0,1,1,0-.806h6.447a.4.4,0,0,1,0,.806Z" transform="translate(-434.397 -234.494)" fill="#ccc"/>
  <path id="Path_77" data-name="Path 77" d="M667.765,237.983H650.438a3.832,3.832,0,0,1-3.828-3.828V216.828A3.832,3.832,0,0,1,650.438,213h17.327a3.832,3.832,0,0,1,3.828,3.828v17.327A3.832,3.832,0,0,1,667.765,237.983Zm-17.327-24.177a3.025,3.025,0,0,0-3.022,3.022v17.327a3.025,3.025,0,0,0,3.022,3.022h17.327a3.026,3.026,0,0,0,3.022-3.022V216.828a3.025,3.025,0,0,0-3.022-3.022Z" transform="translate(-482.161 -213)" fill="#ccc"/>
  <path id="Path_78" data-name="Path 78" d="M673.1,241.865H661.819a1.21,1.21,0,0,1-1.209-1.209v-6.447A1.21,1.21,0,0,1,661.819,233H673.1a1.21,1.21,0,0,1,1.209,1.209v6.447A1.21,1.21,0,0,1,673.1,241.865Zm-11.283-8.059a.4.4,0,0,0-.4.4v6.447a.4.4,0,0,0,.4.4H673.1a.4.4,0,0,0,.4-.4v-6.447a.4.4,0,0,0-.4-.4Z" transform="translate(-490.519 -224.941)" fill="#ccc"/>
  <path id="Path_79" data-name="Path 79" d="M667.46,239.689a1.21,1.21,0,0,1-.641-.182l-6.02-3.763a.4.4,0,1,1,.427-.684l6.02,3.763a.405.405,0,0,0,.427,0l6.02-3.763a.4.4,0,0,1,.427.684l-6.02,3.763A1.211,1.211,0,0,1,667.46,239.689Z" transform="translate(-490.519 -226.135)" fill="#ccc"/>
  <path id="Path_80" data-name="Path 80" d="M463.765,237.983H446.438a3.832,3.832,0,0,1-3.828-3.828V216.828A3.832,3.832,0,0,1,446.438,213h17.327a3.832,3.832,0,0,1,3.828,3.828v17.327A3.832,3.832,0,0,1,463.765,237.983Zm-17.327-24.177a3.026,3.026,0,0,0-3.022,3.022v17.327a3.026,3.026,0,0,0,3.022,3.022h17.327a3.025,3.025,0,0,0,3.022-3.022V216.828a3.026,3.026,0,0,0-3.022-3.022Z" transform="translate(-360.363 -213)" fill="#ccc"/>
  <path id="Path_81" data-name="Path 81" d="M469.1,241.865H457.819a1.21,1.21,0,0,1-1.209-1.209v-6.447A1.21,1.21,0,0,1,457.819,233H469.1a1.21,1.21,0,0,1,1.209,1.209v6.447A1.21,1.21,0,0,1,469.1,241.865Zm-11.283-8.059a.4.4,0,0,0-.4.4v6.447a.4.4,0,0,0,.4.4H469.1a.4.4,0,0,0,.4-.4v-6.447a.4.4,0,0,0-.4-.4Z" transform="translate(-368.722 -224.941)" fill="#ccc"/>
  <path id="Path_82" data-name="Path 82" d="M469.963,246.343h-8.109a.806.806,0,0,1-.7-1.209L463.6,240.9a.806.806,0,0,1,1.4,0l1.578,2.733.914-1.583a.806.806,0,0,1,1.4,0l1.779,3.082a.806.806,0,0,1-.7,1.209Zm0-.806h0l-1.779-3.082-1.263,2.188a.4.4,0,0,1-.349.2h0a.4.4,0,0,1-.349-.2l-1.926-3.337-2.443,4.231Z" transform="translate(-371.371 -229.419)" fill="#ccc"/>
  <circle id="Ellipse_20" data-name="Ellipse 20" cx="0.806" cy="0.806" r="0.806" transform="translate(98.365 9.671)" fill="#ccc"/>
  <path id="Path_83" data-name="Path 83" d="M435.765,331.983H418.438a3.832,3.832,0,0,1-3.828-3.828V310.828A3.832,3.832,0,0,1,418.438,307h17.327a3.832,3.832,0,0,1,3.828,3.828v17.327A3.832,3.832,0,0,1,435.765,331.983Zm-17.327-24.177a3.026,3.026,0,0,0-3.022,3.022v17.327a3.026,3.026,0,0,0,3.022,3.022h17.327a3.026,3.026,0,0,0,3.022-3.022V310.828a3.026,3.026,0,0,0-3.022-3.022Z" transform="translate(-343.646 -269.122)" fill="#3f3d56"/>
  <path id="Path_84" data-name="Path 84" d="M441.1,335.38H429.819a1.21,1.21,0,0,1-1.209-1.209v-8.462a1.21,1.21,0,0,1,1.209-1.209H433a1.2,1.2,0,0,1,1.03.575l.886,1.44H441.1a1.21,1.21,0,0,1,1.209,1.209v6.447A1.21,1.21,0,0,1,441.1,335.38Z" transform="translate(-352.005 -279.571)" fill="#ef8e73"/>
  <circle id="Ellipse_21" data-name="Ellipse 21" cx="9.337" cy="9.337" r="9.337" transform="translate(31.428 46.758)" fill="#ffb8b8"/>
  <path id="Path_85" data-name="Path 85" d="M303.819,431.771q-.176,0-.354-.016a4.183,4.183,0,0,1-3.754-4.986,3.922,3.922,0,0,1,.1-.4l-13.781-16.3a3.248,3.248,0,0,1-.226-3.872l.025-.03,12.4-12.231a3.586,3.586,0,1,1,4.988,5.152l-8.984,8.541,9.835,15.786a3.981,3.981,0,0,1,.555.068,4.183,4.183,0,0,1-.811,8.284Z" transform="translate(-266.425 -320.426)" fill="#ffb8b8"/>
  <path id="Path_86" data-name="Path 86" d="M139.327,435.065h4.661l2.217-17.977h-6.879Z" transform="translate(-83.184 -249.021)" fill="#ffb8b8"/>
  <path id="Path_87" data-name="Path 87" d="M374.878,670.924h9.179a5.849,5.849,0,0,1,5.849,5.849v.19H374.878Z" transform="translate(-319.924 -486.402)" fill="#2f2e41"/>
  <path id="Path_88" data-name="Path 88" d="M24.366,422.823l4,2.384,11.1-14.312-5.911-3.519Z" transform="translate(-14.548 -243.223)" fill="#ffb8b8"/>
  <path id="Path_89" data-name="Path 89" d="M257.685,653.956l7.886,4.7h0a5.849,5.849,0,0,1,2.033,8.018l-.1.163L254.6,659.145Z" transform="translate(-248.11 -476.271)" fill="#2f2e41"/>
  <path id="Path_90" data-name="Path 90" d="M318.86,531.937h-5.219a1.708,1.708,0,0,1-1.7-1.53l-5.261-49.457a.57.57,0,0,0-1.087-.174L296.1,501.792l-16.8,27.4a1.719,1.719,0,0,1-2.147.671l-6.713-2.954a1.711,1.711,0,0,1-.78-2.444L285.1,498.6l4.738-21.794c-1.49-9.451,4.9-23.5,4.963-23.644l.032-.069,17.6-6.878.088.108c6.939,22.772,11.168,47.279,8.046,84.043A1.722,1.722,0,0,1,318.86,531.937Z" transform="translate(-256.956 -352.242)" fill="#3f3e50"/>
  <path id="Path_91" data-name="Path 91" d="M319.272,417.785l-.082-.172c-.039-.082-3.952-8.335-6.968-17.154a13.009,13.009,0,0,1,.9-10.426,13.151,13.151,0,0,1,8.387-6.449h0a13.167,13.167,0,0,1,15.283,7.886c2.392,5.983,1.63,12.368.912,17.39l-.014.1L337.6,409Z" transform="translate(-282.103 -314.629)" fill="#ef8e73"/>
  <path id="Path_93" data-name="Path 93" d="M312.12,320.252c-13.034.611-10.467,20.592-10.467,26.86,0,3.5.576,15.294,3.06,15.717l.471-1.986,2.055,4.88c.7,0,1.431-.01,2.191-.024,0,0,.134-1.428.7-1.435s1.553,1.409,1.553,1.409c6.222.009,11.785-21.808,11.785-28.044C323.464,331.362,328.078,321.061,312.12,320.252Z" transform="translate(-275.682 -277.034)" fill="#a06861"/>
  <path id="Path_94" data-name="Path 94" d="M377.738,347.893q.085.155.156.318a4.183,4.183,0,0,1-2.576,5.685,3.933,3.933,0,0,1-.4.1l-7.7,19.908a3.248,3.248,0,0,1-3.289,2.055l-.039-.007-16.681-5.022a3.586,3.586,0,1,1,2.13-6.848l11.8,3.789,9.138-16.2a3.973,3.973,0,0,1-.206-.52,4.183,4.183,0,0,1,7.659-3.26Z" transform="translate(-301.902 -292.241)" fill="#ffb8b8"/>
  <path id="Path_95" data-name="Path 95" d="M693.765,331.983H676.438a3.833,3.833,0,0,1-3.828-3.828V310.828A3.832,3.832,0,0,1,676.438,307h17.327a3.832,3.832,0,0,1,3.828,3.828v17.327A3.832,3.832,0,0,1,693.765,331.983Zm-17.327-24.177a3.026,3.026,0,0,0-3.022,3.022v17.327a3.026,3.026,0,0,0,3.022,3.022h17.327a3.025,3.025,0,0,0,3.022-3.022V310.828a3.025,3.025,0,0,0-3.022-3.022Z" transform="translate(-497.684 -269.122)" fill="#3f3d56"/>
  <path id="Path_96" data-name="Path 96" d="M698.237,327.753a3.627,3.627,0,1,1,3.627-3.627A3.627,3.627,0,0,1,698.237,327.753Z" transform="translate(-510.819 -277.182)" fill="#ef8e73"/>
  <path id="Path_97" data-name="Path 97" d="M699.519,346.544h-7.242a1.507,1.507,0,0,1-1.584-1.41,5.24,5.24,0,0,1,10.41,0A1.507,1.507,0,0,1,699.519,346.544Z" transform="translate(-508.48 -289.123)" fill="#ef8e73"/>
  <path id="Path_98" data-name="Path 98" d="M590.255,433.3h-4.94l-2.35-19.055h7.292Z" transform="translate(-348.057 -247.32)" fill="#d9a4a4"/>
  <path id="Path_99" data-name="Path 99" d="M571.152,458.025h9.527v6H565.154a6,6,0,0,1,6-6Z" transform="translate(-337.423 -273.462)" fill="#2f2e41"/>
  <path id="Path_100" data-name="Path 100" d="M663.8,406.767l-3.65,3.33L645.573,397.6l5.387-4.914Z" transform="translate(-385.437 -234.454)" fill="#d9a4a4"/>
  <path id="Path_101" data-name="Path 101" d="M6,0h9.527V6H0A6,6,0,0,1,6,0Z" transform="matrix(0.739, -0.674, 0.674, 0.739, 266.723, 181.022)" fill="#2f2e41"/>
  <path id="Path_102" data-name="Path 102" d="M818.207,557.535a1.8,1.8,0,0,1-1.791-1.554l-4.3-29.774a17.282,17.282,0,0,1-.061-4.481l4.2-35.853,26.8,2.25L839,522.094l15.3,19.076a1.809,1.809,0,0,1-.224,2.5l-3.852,3.355a1.813,1.813,0,0,1-2.569-.189l-14.5-16.963a22.782,22.782,0,0,1-4.722-9.091l-2.07-8.071a.6.6,0,0,0-1.157-.047l-2.737,7.907L824.2,555.4a1.817,1.817,0,0,1-1.71,1.9l-4.18.232Z" transform="translate(-580.866 -375.918)" fill="#3f3e50"/>
  <circle id="Ellipse_22" data-name="Ellipse 22" cx="9.897" cy="9.897" r="9.897" transform="translate(242.334 41.714)" fill="#d9a4a4"/>
  <path id="Path_103" data-name="Path 103" d="M721.272,361.14a4.052,4.052,0,0,0,5.965,1.74l12.976,7.862-1.008-6.649-10.984-7.1a4.074,4.074,0,0,0-6.949,4.145Z" transform="translate(-526.526 -298.023)" fill="#d9a4a4"/>
  <path id="Path_104" data-name="Path 104" d="M837.739,424.982h0a32.416,32.416,0,0,1-16.258-4.847,2.011,2.011,0,0,1-.875-2.444l5.145-13.864-1.17-16.336a14.177,14.177,0,0,1,7.058-13.438,12.731,12.731,0,0,1,11.106-.658,13.69,13.69,0,0,1,7.888,8.99l1.652,5.746a35.254,35.254,0,0,1-.66,21.4l-4.785,13.435-.124.074A18.9,18.9,0,0,1,837.739,424.982Z" transform="translate(-585.968 -308.184)" fill="#ccc"/>
  <path id="Path_105" data-name="Path 105" d="M738.345,371.079a2.013,2.013,0,0,1,.021-2.262l2.508-3.622a2.018,2.018,0,0,1,2.586-.641l18.6,9.671,20.519-2.057a5.7,5.7,0,1,1,.626,11.369l-19.134.194a11.768,11.768,0,0,1-5.766-1.446l-19.247-10.555A2.023,2.023,0,0,1,738.345,371.079Z" transform="translate(-536.729 -303.35)" fill="#ccc"/>
  <path id="Path_106" data-name="Path 106" d="M875.818,495.925a4.052,4.052,0,0,0,.186-6.211l4.833-13.3-6.665,1.414-4.112,12.414a4.074,4.074,0,0,0,5.757,5.685Z" transform="translate(-615.059 -370.269)" fill="#d9a4a4"/>
  <path id="Path_107" data-name="Path 107" d="M876.839,429.434a2,2,0,0,1-.692-.123l-4.136-1.518a2.018,2.018,0,0,1-1.27-2.342l4.691-20.429-7.144-19.344a5.7,5.7,0,1,1,10.847-3.461l4.994,18.472a11.769,11.769,0,0,1,.048,5.944l-5.383,21.281a2.014,2.014,0,0,1-1.953,1.521Z" transform="translate(-614.306 -311.515)" fill="#ccc"/>
  <path id="Path_109" data-name="Path 109" d="M845.27,685.806H767.9a.4.4,0,1,1,0-.806H845.27a.4.4,0,0,1,0,.806Z" transform="translate(-554.337 -494.806)" fill="#3f3d56"/>
  <path id="Path_110" data-name="Path 110" d="M316.27,685.806H238.9a.4.4,0,1,1,0-.806H316.27a.4.4,0,0,1,0,.806Z" transform="translate(-238.5 -494.806)" fill="#3f3d56"/>
  <path id="Path_111" data-name="Path 111" d="M243.953,45.05c.111.948,2.846,4.939,5.848,5.258s-1.438-1.282-.938-3.181,5.385.978,2.7,10.555-1.3,11.009,1.171,10.821,2.545-2.164,5.839,0,6.707-7.106,6.022-10.821.378-16.1-8.559-17.675S243.842,44.1,243.953,45.05Z" fill="#b18673"/>
</svg>
