<svg xmlns="http://www.w3.org/2000/svg" width="41.684" height="41.683" viewBox="0 0 41.684 41.683"><defs><style>.a{fill:#ef8e73;}</style></defs><g transform="translate(-1685.158 -2780.157)"><g transform="translate(1685.158 2780.156)"><g transform="translate(30.012 37.372)"><path class="a" d="M370.179,459.442a.814.814,0,0,0-1.113-.3l-.031.018a.814.814,0,1,0,.817,1.408l.031-.018A.814.814,0,0,0,370.179,459.442Z" transform="translate(-368.63 -459.036)"/></g><g transform="translate(0 0.001)"><g transform="translate(0 0)"><path class="a" d="M38.891,10.428A20.837,20.837,0,0,0,.719,15.454,20.84,20.84,0,0,0,28.3,40.308a.814.814,0,0,0-.584-1.52A19.085,19.085,0,0,1,9.35,36.264l.729-3.807.351-.114a2.536,2.536,0,0,0,1.626-3.191l-.258-.794a.9.9,0,0,1,0-.561,2.533,2.533,0,0,0-1.921-3.275l-1.837-.359L4.5,21.466a.814.814,0,0,0-.744-.126l-2.076.674a19.193,19.193,0,0,1,0-2.223c.082.076.135.128.168.162a.853.853,0,0,0,.8.408A11.825,11.825,0,0,0,4.1,20.2c.687-.1,1.37-.216,1.377-.217a.814.814,0,0,0,.538-1.261l-1-1.464,1.43-1.022a.815.815,0,0,0,.233-.258L8.891,12.1l.893-.957A3.439,3.439,0,0,0,10.448,7.5,3.744,3.744,0,0,0,8.965,5.753,19.184,19.184,0,0,1,20.623,1.644L19.169,3.468l-5.391,1.89a.814.814,0,0,0-.483.458L11.79,9.465a.814.814,0,0,0,.09.783l2.2,3.08a7.737,7.737,0,0,0-.988,1.225c-.161.228-.312.443-.417.564-.091.105-.182.208-.273.309a7.618,7.618,0,0,0-1.309,1.817,4.851,4.851,0,0,0,.4,4.9A4.569,4.569,0,0,0,15.809,24a6.339,6.339,0,0,0,.8-.16c.7-.173.919-.19,1.143.02.109.1.119.121.117.467a3.164,3.164,0,0,0,.073.807,2.572,2.572,0,0,0,.688,1.124,1.824,1.824,0,0,1,.3.377,2.027,2.027,0,0,1-.1,1.684l-.063.194a4.569,4.569,0,0,0,.6,3.267c.147.324.286.629.377.9.732,2.172,1.281,2.669,1.721,2.87a1.7,1.7,0,0,0,.71.151,4.552,4.552,0,0,0,2.961-1.781,2.5,2.5,0,0,0,.5-1.185,1.3,1.3,0,0,1,.1-.364A2.133,2.133,0,0,1,26,32.024a2.824,2.824,0,0,0,.666-1.106,1.792,1.792,0,0,1,.552-.867l.18-.193a2.611,2.611,0,0,0,.509-3.036c-.249-.8.186-1.317,1.239-2.3a8.793,8.793,0,0,0,1.293-1.392,1.758,1.758,0,0,0,.345-1.631c-.294-.683-1.043-.8-1.644-.89a2.7,2.7,0,0,1-.711-.166,3.849,3.849,0,0,1-1.11-1.681c-.059-.132-.118-.263-.177-.39-.106-.226-.212-.5-.324-.789a6.83,6.83,0,0,0-1.2-2.241,5.2,5.2,0,0,0-2.336-1.038c-.287-.078-.558-.151-.737-.217a.813.813,0,0,0-.468-.029,2.113,2.113,0,0,0-.868.359,1.011,1.011,0,0,0-.29.39,9.311,9.311,0,0,1-.96-.584l-.016-.011a1.154,1.154,0,0,0-.073-.784c-.455-.962-1.964-.887-2.262-.861-.169.014-.383.022-.61.03-.356.013-.749.027-1.138.07l.02-.056a2.082,2.082,0,0,1,1.955-1.375H18.3a.814.814,0,0,0,0-1.628h-.463a3.716,3.716,0,0,0-3.151,1.758l-1.214-1.7,1.195-2.9,5.268-1.847a.814.814,0,0,0,.367-.261l2.342-2.937a19.2,19.2,0,0,1,14.843,9.514A19,19,0,0,1,39.4,15.9l-.345.308a2.174,2.174,0,0,0-.724,1.582c0,.007,0,.013,0,.02l-.562-1.546a2.032,2.032,0,0,0-.367-.629l-1-1.174a2.04,2.04,0,0,0-1.553-.716H33.617a1.179,1.179,0,0,0-.981,1.833l.124.187a9.022,9.022,0,0,1-2.688,1.6l-1.683-3.223v-.719a.814.814,0,0,0-.252-.589l-1.515-1.447a.815.815,0,0,0-.292-.179l-1.364-.479a.814.814,0,1,0-.54,1.536l1.2.421,1.137,1.085v.571a.814.814,0,0,0,.092.377L28.96,18.75a.814.814,0,0,0,1,.387l.613-.226a10.654,10.654,0,0,0,3.82-2.445.814.814,0,0,0,.1-1.027l-.043-.065h.389a.414.414,0,0,1,.316.145l1,1.174a.413.413,0,0,1,.074.128l1.107,3.043a.814.814,0,0,0,1.341.3l.527-.527a2.542,2.542,0,0,0,.673-1.224,19.278,19.278,0,0,1-7.157,17.532.814.814,0,0,0,1.005,1.281,20.84,20.84,0,0,0,5.159-26.8ZM3.85,23.02l3.357,2.552a.813.813,0,0,0,.337.151l2.023.4a.9.9,0,0,1,.686,1.17,2.516,2.516,0,0,0,0,1.572l.258.794a.906.906,0,0,1-.581,1.14l-.809.263a.814.814,0,0,0-.548.621l-.651,3.4a19.423,19.423,0,0,1-3.709-4.626,19.107,19.107,0,0,1-2.365-6.78ZM8.594,10.036l-.958,1.026a.817.817,0,0,0-.111.151l-2.175,3.8L3.418,16.391a.814.814,0,0,0-.2,1.121l.723,1.06c-.417.062-.791.113-1.039.14l-.149-.14c-.194-.18-.462-.42-.863-.771A19.242,19.242,0,0,1,7.624,6.912,2.117,2.117,0,0,1,8.943,8.12,1.806,1.806,0,0,1,8.594,10.036Zm6.638,4.449a5.22,5.22,0,0,1,1.821-.256c.247-.009.48-.017.688-.034a2.214,2.214,0,0,1,.347,0,.814.814,0,0,0,.375,1.013c.153.082.365.223.59.374a4.691,4.691,0,0,0,2.035.948,1.351,1.351,0,0,0,1.106-.461l.035-.035a.872.872,0,0,0,.218-.267c.13.037.267.074.407.112a5.421,5.421,0,0,1,1.578.583,5.779,5.779,0,0,1,.869,1.711c.122.317.238.616.368.893.056.119.11.241.166.366a5.084,5.084,0,0,0,1.7,2.378,3.365,3.365,0,0,0,1.355.413l.177.028a7.872,7.872,0,0,1-1.033,1.084c-1.008.939-2.262,2.107-1.684,3.97.273.88.285.975-.153,1.452l-.168.18a3.345,3.345,0,0,0-.918,1.489,1.271,1.271,0,0,1-.332.518,3.635,3.635,0,0,0-.455.6,2.638,2.638,0,0,0-.295.865,1,1,0,0,1-.17.477,4.746,4.746,0,0,1-1.028.909,1.343,1.343,0,0,1-.682.272,5.808,5.808,0,0,1-.877-1.912c-.117-.348-.28-.706-.437-1.053a3.49,3.49,0,0,1-.531-2.093l.061-.187a3.556,3.556,0,0,0,.054-2.818,2.936,2.936,0,0,0-.593-.845,1.513,1.513,0,0,1-.311-.413,1.76,1.76,0,0,1-.027-.412,2.019,2.019,0,0,0-.632-1.667,2.622,2.622,0,0,0-2.647-.412,5.107,5.107,0,0,1-.594.124,2.925,2.925,0,0,1-2.8-1.185,3.223,3.223,0,0,1-.253-3.258,6.181,6.181,0,0,1,1.054-1.431c.095-.106.19-.214.285-.324.159-.183.333-.431.518-.693A5.885,5.885,0,0,1,15.232,14.484Z" transform="translate(0 -0.001)"/></g></g><g transform="translate(28.507 25.948)"><path class="a" d="M355.024,320.793l-.392-1.476a.814.814,0,0,0-1.5-.179c-.089.164-.17.339-.247.507a3.5,3.5,0,0,1-.406.738,1.8,1.8,0,0,1-.478.283,2.238,2.238,0,0,0-1.356,1.318,2.385,2.385,0,0,0-.054,1.149.741.741,0,0,1-.021.48l-.008.019a2.74,2.74,0,0,0-.065,2.7,1.7,1.7,0,0,0,1.384.863,1.322,1.322,0,0,0,.217-.018c.83-.136,1.455-1,1.965-2.719l.958-3.227A.814.814,0,0,0,355.024,320.793ZM352.5,324a4.939,4.939,0,0,1-.623,1.467c-.015-.02-.032-.042-.05-.067-.156-.222.077-.767.231-1.129l.008-.019a2.291,2.291,0,0,0,.134-1.356.853.853,0,0,1,0-.423c.032-.1.223-.2.51-.339.127-.062.268-.129.409-.211Z" transform="translate(-350.15 -318.712)"/></g><g transform="translate(20.846 9.612)"><path class="a" d="M257.182,118.124l-.055-.019a.814.814,0,1,0-.539,1.536l.055.019a.814.814,0,1,0,.539-1.536Z" transform="translate(-256.044 -118.059)"/></g></g></g></svg>