<svg xmlns="http://www.w3.org/2000/svg" width="51" height="39" viewBox="0 0 51 39"><defs><style>.a,.b,.d{fill:none;}.a{stroke:#e4896f;stroke-width:1.5px;}.c,.e{stroke:none;}.e{fill:#e4896f;}</style></defs><g transform="translate(-529 -2368)"><g class="a" transform="translate(529 2368)"><rect class="c" width="23" height="17" rx="3"/><rect class="d" x="0.75" y="0.75" width="21.5" height="15.5" rx="2.25"/></g><g class="b" transform="translate(556.661 2368)"><path class="c" d="M2.593,0H20.746a2.593,2.593,0,0,1,2.593,2.593v12.1a2.593,2.593,0,0,1-2.593,2.593H2.593A2.593,2.593,0,0,1,0,14.695V2.593A2.593,2.593,0,0,1,2.593,0Z"/><path class="e" d="M 2.593221664428711 1.499998092651367 C 1.990421295166016 1.499998092651367 1.500001907348633 1.99041748046875 1.500001907348633 2.593217849731445 L 1.500001907348633 14.69491767883301 C 1.500001907348633 15.2977180480957 1.990421295166016 15.78813743591309 2.593221664428711 15.78813743591309 L 20.74576187133789 15.78813743591309 C 21.34856224060059 15.78813743591309 21.83898162841797 15.2977180480957 21.83898162841797 14.69491767883301 L 21.83898162841797 2.593217849731445 C 21.83898162841797 1.99041748046875 21.34856224060059 1.499998092651367 20.74576187133789 1.499998092651367 L 2.593221664428711 1.499998092651367 M 2.593221664428711 -1.9073486328125e-06 L 20.74576187133789 -1.9073486328125e-06 C 22.1779613494873 -1.9073486328125e-06 23.33898162841797 1.161027908325195 23.33898162841797 2.593217849731445 L 23.33898162841797 14.69491767883301 C 23.33898162841797 16.12710762023926 22.1779613494873 17.28813743591309 20.74576187133789 17.28813743591309 L 2.593221664428711 17.28813743591309 C 1.161022186279297 17.28813743591309 1.9073486328125e-06 16.12710762023926 1.9073486328125e-06 14.69491767883301 L 1.9073486328125e-06 2.593217849731445 C 1.9073486328125e-06 1.161027908325195 1.161022186279297 -1.9073486328125e-06 2.593221664428711 -1.9073486328125e-06 Z"/></g><g class="a" transform="translate(529 2390)"><rect class="c" width="51" height="17" rx="3"/><rect class="d" x="0.75" y="0.75" width="49.5" height="15.5" rx="2.25"/></g></g></svg>