<svg xmlns="http://www.w3.org/2000/svg" xmlns:xlink="http://www.w3.org/1999/xlink" width="48.501" height="48.5" viewBox="0 0 48.501 48.5"><defs><style>.a{fill:#e4896f;}.b{clip-path:url(#a);}</style><clipPath id="a"><rect class="a" width="48.501" height="48.5"/></clipPath></defs><g transform="translate(-188 -2384)"><g transform="translate(188 2384)"><g class="b"><path class="a" d="M267.227,152a3.233,3.233,0,1,0,3.233,3.233A3.233,3.233,0,0,0,267.227,152m0,4.85a1.617,1.617,0,1,1,1.617-1.617,1.617,1.617,0,0,1-1.617,1.617" transform="translate(-237.32 -136.642)"/><path class="a" d="M40.685,3.439A18.584,18.584,0,0,0,14.765,29.358L.906,43.217a3.095,3.095,0,0,0,4.376,4.376l13.859-13.86A18.587,18.587,0,0,0,40.685,3.439M4.14,46.451a1.478,1.478,0,1,1-2.09-2.09L15.767,30.642a18.9,18.9,0,0,0,2.09,2.09ZM29.908,35.566A16.975,16.975,0,1,1,46.883,18.592,16.975,16.975,0,0,1,29.908,35.566" transform="translate(0 0)"/><path class="a" d="M159.352,32a15.358,15.358,0,1,0,15.358,15.358A15.358,15.358,0,0,0,159.352,32m0,1.617A13.751,13.751,0,0,1,172.907,45.2a19.738,19.738,0,0,0-13.256-5.116h-.6A19.739,19.739,0,0,0,145.8,45.2a13.751,13.751,0,0,1,13.556-11.583m-5.658,13.742a5.658,5.658,0,1,1,5.658,5.658,5.658,5.658,0,0,1-5.658-5.658m.335,4.942a18.121,18.121,0,0,1-8.134-4.942,18.122,18.122,0,0,1,8.134-4.942,7.232,7.232,0,0,0,0,9.884m12.6-4.942a7.236,7.236,0,0,0-1.952-4.942,18.121,18.121,0,0,1,8.134,4.942,18.121,18.121,0,0,1-8.134,4.942,7.236,7.236,0,0,0,1.952-4.942M159.352,61.1A13.751,13.751,0,0,1,145.8,49.517a19.738,19.738,0,0,0,13.256,5.116h.6a19.739,19.739,0,0,0,13.257-5.116A13.751,13.751,0,0,1,159.352,61.1" transform="translate(-129.445 -28.767)"/></g></g></g></svg>