<svg id="Layer_1" data-name="Layer 1" xmlns="http://www.w3.org/2000/svg" viewBox="0 0 508 142"><defs><style>.cls-1{fill:#fff;}</style></defs><path class="cls-1" d="M62.505,87.392V87.32c-2.52,2.664-5.544,5.328-9.144,5.328a7.118,7.118,0,0,1-7.417-6.84c0-4.537,3.241-8.281,16.994-11.377L63.01,72.2c.216-7.128-2.737-9.865-7.129-9.865-2.592,0-5.4,1.44-5.4,2.161,0,.5,1.873,2.016,1.873,3.96a3.26,3.26,0,0,1-3.457,3.1c-2.016,0-3.456-1.3-3.456-2.953,0-3.816,8.785-8.065,14.545-8.065,6.841,0,9.721,2.3,9.217,11.377l-.72,13.754c-.144,2.52.792,3.816,2.52,3.816,1.152,0,2.088-.936,3.024-1.8l.361.216c-1.224,1.656-3.673,4.825-6.841,4.825C64.522,92.721,62.866,90.848,62.505,87.392Zm0-.865.433-11.377c-9.217,2.016-10.945,5.114-10.945,8.641,0,3.168,2.376,5.4,4.68,5.4A7.361,7.361,0,0,0,62.505,86.527Z"/><path class="cls-1" d="M76.011,91.568l1.3-.072c2.232-.144,3.025-.217,3.025-1.08V69.9c0-4.465-.5-5.186-2.953-5.689l-1.656-.36.072-.288L86.452,60.75l-.216,11.377h.144c1.944-7.273,4.968-11.522,9.649-11.522,2.52,0,4.68,1.873,4.68,3.96a3.959,3.959,0,0,1-3.96,4.033c-2.017,0-4.177-1.368-4.321-4.536-2.736.576-4.176,3.887-6.048,10.512V90.561c0,.575.5.863,3.672.935l2.232.072L92.5,92H75.8Z"/><path class="cls-1" d="M108.742,85.447l.36-20.882-5.688-.071.288-.792,3.528-2.665,7.849-6.192.215.072-.071,6.552,10.873.073-1.3,2.736h-9.576l-.5,20.81c0,2.519,1.511,4.32,4.968,4.32a8.738,8.738,0,0,0,6.121-2.3l.359.288c-2.88,2.879-6.408,5.544-10.081,5.544C111.262,92.936,108.67,90.561,108.742,85.447Z"/><path class="cls-1" d="M128.088,77.455c0-9.289,6.336-16.922,15.625-16.922,7.345,0,11.665,3.961,11.665,9.865a6.712,6.712,0,0,1-.144,1.008l-20.378-.072a35.2,35.2,0,0,0-.215,3.889c0,8.281,4.824,13.465,11.088,13.465,4.1,0,7.129-1.153,9.865-5.689l.5.288c-3.456,6.121-7.632,9.649-13.537,9.649C134.136,92.936,128.088,86.239,128.088,77.455Zm20.738-6.913c0-4.608-1.44-9.289-5.689-9.289-3.96,0-7.272,4.609-8.137,9.433Z"/><path class="cls-1" d="M157.989,91.568l1.224-.072c2.232-.144,3.024-.217,3.024-1.08v-37.8c0-4.393-.5-4.969-2.952-5.617l-1.584-.432.071-.288,10.514-2.736V90.561c0,.575.431.647,3.6.935l1.008.072.216.432H157.845Z"/><path class="cls-1" d="M176.211,91.568l1.225-.072c2.231-.144,3.023-.217,3.023-1.08v-37.8c0-4.393-.5-4.969-2.952-5.617l-1.584-.432.072-.288,10.513-2.736V90.561c0,.575.432.647,3.6.935l1.009.072.216.432H176.067Z"/><path class="cls-1" d="M192.929,77.455c0-9.289,6.336-16.922,15.625-16.922,7.344,0,11.665,3.961,11.665,9.865a6.712,6.712,0,0,1-.144,1.008L199.7,71.334a35.2,35.2,0,0,0-.216,3.889c0,8.281,4.825,13.465,11.089,13.465,4.1,0,7.129-1.153,9.865-5.689l.5.288c-3.456,6.121-7.632,9.649-13.537,9.649C198.977,92.936,192.929,86.239,192.929,77.455Zm20.738-6.913c0-4.608-1.44-9.289-5.689-9.289-3.96,0-7.272,4.609-8.137,9.433Z"/><path class="cls-1" d="M240.231,77.455c0-9.217,6.337-16.922,16.13-16.922,5.76,0,10.8,2.377,10.8,6.553a3.737,3.737,0,0,1-3.6,3.744,3.6,3.6,0,0,1-3.673-3.456c0-2.376,1.44-3.312,1.44-3.889,0-.936-2.376-2.376-4.608-2.376-5.617,0-9.937,5.832-9.937,14.041,0,8.425,4.824,13.538,11.089,13.538,4.1,0,6.625-1.153,9.361-5.689l.576.288c-3.384,6.121-7.273,9.649-13.177,9.649C246.28,92.936,240.231,86.239,240.231,77.455Z"/><path class="cls-1" d="M270.521,91.568l1.3-.072c2.232-.144,3.024-.217,3.024-1.08V69.9c0-4.465-.5-5.186-2.952-5.689l-1.656-.36.072-.288,10.657-2.808-.217,11.377h.145c1.944-7.273,4.968-11.522,9.648-11.522,2.521,0,4.681,1.873,4.681,3.96a3.959,3.959,0,0,1-3.96,4.033c-2.017,0-4.177-1.368-4.321-4.536-2.736.576-4.176,3.887-6.048,10.512V90.561c0,.575.5.863,3.671.935l2.233.072.217.432H270.306Z"/><path class="cls-1" d="M296.809,77.455c0-9.289,6.337-16.922,15.625-16.922,7.344,0,11.665,3.961,11.665,9.865a6.712,6.712,0,0,1-.144,1.008l-20.378-.072a35.445,35.445,0,0,0-.216,3.889c0,8.281,4.825,13.465,11.089,13.465,4.105,0,7.129-1.153,9.864-5.689l.5.288c-3.457,6.121-7.632,9.649-13.537,9.649C302.857,92.936,296.809,86.239,296.809,77.455Zm20.737-6.913c0-4.608-1.44-9.289-5.689-9.289-3.96,0-7.272,4.609-8.136,9.433Z"/><path class="cls-1" d="M345.208,87.392V87.32c-2.52,2.664-5.545,5.328-9.146,5.328a7.117,7.117,0,0,1-7.416-6.84c0-4.537,3.241-8.281,16.994-11.377l.072-2.233c.216-7.128-2.736-9.865-7.129-9.865-2.592,0-5.4,1.44-5.4,2.161,0,.5,1.872,2.016,1.872,3.96a3.26,3.26,0,0,1-3.456,3.1c-2.017,0-3.456-1.3-3.456-2.953,0-3.816,8.784-8.065,14.545-8.065,6.84,0,9.72,2.3,9.216,11.377l-.719,13.754c-.145,2.52.792,3.816,2.519,3.816,1.152,0,2.089-.936,3.025-1.8l.36.216c-1.225,1.656-3.673,4.825-6.841,4.825C347.224,92.721,345.567,90.848,345.208,87.392Zm0-.865.432-11.377c-9.217,2.016-10.945,5.114-10.945,8.641,0,3.168,2.376,5.4,4.68,5.4A7.363,7.363,0,0,0,345.208,86.527Z"/><path class="cls-1" d="M361.73,85.447l.36-20.882-5.689-.071.288-.792,3.529-2.665,7.848-6.192.217.072-.072,6.552,10.873.073-1.3,2.736h-9.577l-.5,20.81c0,2.519,1.512,4.32,4.968,4.32a8.736,8.736,0,0,0,6.121-2.3l.36.288c-2.881,2.879-6.409,5.544-10.081,5.544C364.251,92.936,361.658,90.561,361.73,85.447Z"/><path class="cls-1" d="M382.084,91.568l1.3-.072c2.232-.144,3.024-.217,3.024-1.08V69.822c0-4.392-.5-5.113-2.952-5.616l-1.656-.36.072-.288,10.585-2.808V90.561c0,.575.432.718,3.6.935l1.008.072.216.432H381.868Zm2.592-40.9a4.071,4.071,0,0,1,4.1-4.1,4.121,4.121,0,0,1,4.105,4.1,4.053,4.053,0,0,1-4.105,3.961A4,4,0,0,1,384.676,50.668Z"/><path class="cls-1" d="M402.388,66.582c-1.584-3.745-1.728-4.321-3.96-4.465l-1.368-.072-.216-.432h15.625l-.145.432-1.223.072c-2.737.144-3.1,1.08-2.017,3.745l7.7,18.577,5.4-14.185c2.593-6.84,1.873-7.776-2.952-8.137l-1.008-.072-.215-.432H430.4l-.215.432-1.009.072c-3.312.216-3.384,1.224-6.408,8.93l-8.425,21.674h-.864Z"/><path class="cls-1" d="M430.028,77.455c0-9.289,6.337-16.922,15.625-16.922,7.345,0,11.665,3.961,11.665,9.865a6.691,6.691,0,0,1-.143,1.008L436.8,71.334a35.2,35.2,0,0,0-.216,3.889c0,8.281,4.824,13.465,11.089,13.465,4.1,0,7.129-1.153,9.864-5.689l.5.288c-3.457,6.121-7.633,9.649-13.537,9.649C436.077,92.936,430.028,86.239,430.028,77.455Zm20.738-6.913c0-4.608-1.44-9.289-5.689-9.289-3.96,0-7.272,4.609-8.137,9.433Z"/></svg>