<svg xmlns="http://www.w3.org/2000/svg" xmlns:xlink="http://www.w3.org/1999/xlink" width="1142" height="210" viewBox="0 0 1142 210"><defs><style>.a{fill:none;}.b{fill:#d8eed3;}.c{clip-path:url(#a);}.d,.f,.g,.h{fill:#6cbc4a;}.e,.i{fill:#5c9e3e;}.f{font-size:21px;}.f,.g,.h{font-family:FatFrank-Heavy, FatFrank;font-weight:800;}.g{font-size:22px;}.h{font-size:19px;}.i{font-size:12px;font-family:SweetSansPro-Bold, Sweet Sans Pro;font-weight:700;}</style><clipPath id="a"><rect class="a" width="150.667" height="182.256"/></clipPath></defs><g transform="translate(-112 -115)"><rect class="b" width="1142" height="210" transform="translate(112 115)"/><g transform="translate(608 128.536)"><g class="c"><path class="d" d="M271.259,383.872S255.1,382.52,252.4,394.426s1.331,21.459-1.692,28.118c0,0,24.8-6.16,27-22.44a16.664,16.664,0,0,0-3.282-13.652S259.7,388.439,258.544,404.5a.26.26,0,0,1-.518.005c-.421-5.551.47-16.585,13.233-20.637" transform="translate(-185.743 -284.363)"/><path class="d" d="M210.308,381.182h0c.081-9.552,5.789-10.538,5.789-10.538-4.885-1.044-8.545,5.066-8.545,5.066,5.4-13.849,22.557-7.956,22.557-7.956s-8.8-5.331-17.281-3.248c-9.76,2.4-13.023,7.965-15.809,13.925a93.825,93.825,0,0,0,11.556,5.978,1.162,1.162,0,0,0,1.632-1.075,18.523,18.523,0,0,1,.1-2.152" transform="translate(-145.964 -269.693)"/><path class="e" d="M232.7,283.716c-3.324-22-32.91-20.5-32.91-20.5s21.3-.778,30.8,8.9c6.746,6.874,2.343,16.954,12.728,28.662-1.847-3.172-3.175-8.056-3.129-15.555a28.694,28.694,0,0,0-6.352-19.3c-16.172-18.9-52.39-10.37-52.39-10.37,14.113,5.811,15.809,24.117,15.809,24.117,6.013-3.317,17.293-2.075,24.177,2.323,5.164,3.3,6.968,7.844,10.562,17.408,3.749,9.977,17.016,7.554,17.054,7.548-10.208-.668-14.085-8.219-16.354-23.233" transform="translate(-134.428 -187.909)"/></g><text class="f" transform="matrix(0.502, -0.865, 0.865, 0.502, 24.285, 80.324)"><tspan x="0" y="0">M</tspan></text><text class="g" transform="translate(38.022 61.288) rotate(-35.816)"><tspan x="0" y="0">A</tspan></text><text class="g" transform="translate(55.166 50.21) rotate(-13.919)"><tspan x="0" y="0">X</tspan></text><text class="h" transform="matrix(0.998, 0.059, -0.059, 0.998, 74.682, 44.896)"><tspan x="0" y="0">I</tspan></text><text class="f" transform="translate(86.538 46.507) rotate(23.031)"><tspan x="0" y="0">M</tspan></text><text class="g" transform="matrix(0.688, 0.726, -0.726, 0.688, 107.421, 58.242)"><tspan x="0" y="0">U</tspan></text><text class="f" transform="matrix(0.402, 0.916, -0.916, 0.402, 120.411, 72.117)"><tspan x="0" y="0">S</tspan></text><text class="i" transform="translate(14.626 111.835) rotate(73.191)"><tspan x="0" y="0">M</tspan></text><text class="i" transform="matrix(0.497, 0.868, -0.868, 0.497, 20.705, 128.211)"><tspan x="0" y="0">I</tspan></text><text class="i" transform="translate(26.126 136.995) rotate(48.232)"><tspan x="0" y="0">C</tspan></text><text class="i" transform="matrix(0.838, 0.546, -0.546, 0.838, 37.489, 148.449)"><tspan x="0" y="0">R</tspan></text><text class="i" transform="translate(51.741 156.745) rotate(16.971)"><tspan x="0" y="0">O</tspan></text><text class="i" transform="translate(68.205 160.934) rotate(1.889)"><tspan x="0" y="0">G</tspan></text><text class="i" transform="translate(84.812 160.584) rotate(-13.503)"><tspan x="0" y="0">R</tspan></text><text class="i" transform="translate(100.345 155.956) rotate(-28.125)"><tspan x="0" y="0">E</tspan></text><text class="i" transform="translate(113.417 148.088) rotate(-42.276)"><tspan x="0" y="0">E</tspan></text><text class="i" transform="matrix(0.541, -0.841, 0.841, 0.541, 124.292, 137.17)"><tspan x="0" y="0">N</tspan></text><text class="i" transform="translate(132.604 122.611) rotate(-73.03)"><tspan x="0" y="0">S</tspan></text><g class="c"><path class="e" d="M503.94,372.819a1.306,1.306,0,1,1-1.307-1.307,1.307,1.307,0,0,1,1.307,1.307" transform="translate(-371.416 -275.241)"/><path class="e" d="M68.788,372.819a1.306,1.306,0,1,1-1.306-1.307,1.307,1.307,0,0,1,1.306,1.307" transform="translate(-49.027 -275.241)"/></g></g></g></svg>