<svg xmlns="http://www.w3.org/2000/svg" width="296.404" height="223.986" viewBox="0 0 296.404 223.986">
  <g id="Group_25" data-name="Group 25" transform="translate(-804.229 -444.353)">
    <path id="Path_60" data-name="Path 60" d="M879.248,768.813h-78.1a.357.357,0,0,1,0-.713h78.1a.357.357,0,1,1,0,.713Z" transform="translate(221.029 -100.531)" fill="#3f3e50"/>
    <path id="Path_64" data-name="Path 64" d="M699.713,626.633h7.863v4.951H694.762A4.951,4.951,0,0,1,699.713,626.633Z" transform="translate(352.799 36.754)" fill="#3f3e50"/>
    <path id="Path_66" data-name="Path 66" d="M761.334,626.633H769.2v4.951H756.384A4.951,4.951,0,0,1,761.334,626.633Z" transform="translate(313.153 36.754)" fill="#3f3e50"/>
    <path id="Path_41" data-name="Path 41" d="M338.493,143.6H204.286a12.236,12.236,0,0,0-12.222,12.222V313.4a12.236,12.236,0,0,0,12.222,12.222H338.493A12.236,12.236,0,0,0,350.714,313.4V155.818A12.236,12.236,0,0,0,338.493,143.6Z" transform="translate(612.665 301.257)" fill="#2d303e" stroke="#ef8e73" stroke-width="1"/>
    <path id="Path_42" data-name="Path 42" d="M418.427,261.769H350.56a2.858,2.858,0,1,1,0-5.716h67.867a2.858,2.858,0,0,1,0,5.716Z" transform="translate(512.532 228.905)" fill="#3f3e50"/>
    <path id="Path_43" data-name="Path 43" d="M430.217,288.817H350.56a2.858,2.858,0,1,1,0-5.716h79.657a2.858,2.858,0,1,1,0,5.716Z" transform="translate(512.532 211.503)" fill="#3f3e50"/>
    <path id="Path_44" data-name="Path 44" d="M418.427,382.983H350.56a2.858,2.858,0,1,1,0-5.716h67.867a2.858,2.858,0,1,1,0,5.716Z" transform="translate(512.532 150.92)" fill="#3f3e50"/>
    <path id="Path_45" data-name="Path 45" d="M430.217,410.03H350.56a2.858,2.858,0,1,1,0-5.716h79.657a2.858,2.858,0,1,1,0,5.716Z" transform="translate(512.532 133.518)" fill="#3f3e50"/>
    <path id="Path_46" data-name="Path 46" d="M418.427,504.2H350.56a2.858,2.858,0,1,1,0-5.716h67.867a2.858,2.858,0,1,1,0,5.716Z" transform="translate(512.532 72.935)" fill="#3f3e50"/>
    <path id="Path_47" data-name="Path 47" d="M430.217,531.244H350.56a2.858,2.858,0,1,1,0-5.716h79.657a2.858,2.858,0,0,1,0,5.716Z" transform="translate(512.532 55.533)" fill="#3f3e50"/>
    <path id="Path_48" data-name="Path 48" d="M267.287,267.895H243.269a1.372,1.372,0,0,1-1.37-1.37V245.145a1.372,1.372,0,0,1,1.37-1.37h24.018a1.372,1.372,0,0,1,1.37,1.37v21.379A1.372,1.372,0,0,1,267.287,267.895Z" transform="translate(580.603 236.805)" fill="#3f3e50"/>
    <path id="Path_49" data-name="Path 49" d="M267.287,389.108H243.269a1.372,1.372,0,0,1-1.37-1.37V366.359a1.372,1.372,0,0,1,1.37-1.37h24.018a1.372,1.372,0,0,1,1.37,1.37v21.379A1.372,1.372,0,0,1,267.287,389.108Z" transform="translate(580.603 158.819)" fill="#3f3e50"/>
    <path id="Path_50" data-name="Path 50" d="M267.287,510.321H243.269a1.372,1.372,0,0,1-1.37-1.37V487.572a1.372,1.372,0,0,1,1.37-1.37h24.018a1.372,1.372,0,0,1,1.37,1.37v21.379A1.372,1.372,0,0,1,267.287,510.321Z" transform="translate(580.603 80.834)" fill="#3f3e50"/>
    <path id="Path_52" data-name="Path 52" d="M665.463,383.53l1.326-11.6,5.2-45.494,1.326-11.6A12.87,12.87,0,0,0,662.006,300.6L534.59,286.033a12.87,12.87,0,0,0-14.233,11.312l0,.025-7.849,68.644,0,.025a12.87,12.87,0,0,0,11.312,14.233l127.415,14.57A12.87,12.87,0,0,0,665.463,383.53Z" transform="translate(402.59 206.984)" fill="#2d303e" stroke="#ef8e73" stroke-width="1"/>
    <path id="Path_53" data-name="Path 53" d="M738.591,355.969l-67.428-7.71a2.858,2.858,0,0,1,.649-5.679l67.428,7.71a2.858,2.858,0,0,1-.649,5.679Z" transform="translate(306.057 173.248)" fill="#3f3e50"/>
    <path id="Path_54" data-name="Path 54" d="M747.231,384.181l-79.141-9.05a2.858,2.858,0,0,1,.649-5.679l79.141,9.05a2.858,2.858,0,0,1-.649,5.679Z" transform="translate(308.034 155.959)" fill="#3f3e50"/>
    <path id="Path_55" data-name="Path 55" d="M673.326,430.034,556.647,416.692a2.858,2.858,0,1,1,.649-5.679l116.678,13.342a2.858,2.858,0,0,1-.649,5.679Z" transform="translate(379.733 129.221)" fill="#3f3e50"/>
    <path id="Path_56" data-name="Path 56" d="M670.628,456.949,553.574,443.565a2.858,2.858,0,0,1,.649-5.679L671.277,451.27a2.858,2.858,0,1,1-.649,5.679Z" transform="translate(381.71 111.931)" fill="#3f3e50"/>
    <path id="Path_57" data-name="Path 57" d="M667.3,482.691,550.626,469.349a2.858,2.858,0,0,1,.649-5.679l116.678,13.342a2.858,2.858,0,1,1-.649,5.679Z" transform="translate(383.607 95.343)" fill="#3f3e50"/>
    <path id="Path_58" data-name="Path 58" d="M664.606,509.606,547.553,496.221a2.858,2.858,0,1,1,.649-5.679l117.053,13.385a2.858,2.858,0,0,1-.649,5.679Z" transform="translate(385.584 78.054)" fill="#3f3e50"/>
    <path id="Path_59" data-name="Path 59" d="M583.674,344.6l-23.862-2.729a1.372,1.372,0,0,1-1.206-1.517l2.429-21.241a1.372,1.372,0,0,1,1.517-1.206l23.862,2.729a1.372,1.372,0,0,1,1.206,1.517l-2.429,21.241A1.372,1.372,0,0,1,583.674,344.6Z" transform="translate(376.848 189.117)" fill="#3f3e50"/>
    <path id="Path_61" data-name="Path 61" d="M938.371,383.448a3.344,3.344,0,0,0,3,4.157l2.416,7.25,4.764-.394L945,384.27a3.362,3.362,0,0,0-6.627-.823Z" transform="translate(132.579 148.589)" fill="#ffb8b8"/>
    <path id="Path_62" data-name="Path 62" d="M946.271,443.521h0a4.309,4.309,0,0,0,7.125-2.255l3.773-17.287a17.074,17.074,0,0,0-.44-8.909l-4.416-13.615a1.427,1.427,0,0,0-2-.835l-2.882,1.443a1.427,1.427,0,0,0-.731,1.674l.291,1a48.039,48.039,0,0,1,.367,25.493l-2.347,9.033a4.31,4.31,0,0,0,1.256,4.258Z" transform="translate(128.328 135.992)" fill="#ef8e73"/>
    <path id="Path_63" data-name="Path 63" d="M717.39,601.53h-4.077L711.374,585.8h6.017Z" transform="translate(342.111 63.023)" fill="#ffb8b8"/>
    <path id="Path_65" data-name="Path 65" d="M779.011,601.53h-4.077L772.995,585.8h6.017Z" transform="translate(302.466 63.023)" fill="#ffb8b8"/>
    <circle id="Ellipse_12" data-name="Ellipse 12" cx="8.759" cy="8.759" r="8.759" transform="translate(1060.777 535.24)" fill="#ffb8b8"/>
    <path id="Path_67" data-name="Path 67" d="M850.558,566.193a3.344,3.344,0,0,1,4.312-2.774l4.9-5.868,4.292,2.105-7.029,8.19a3.362,3.362,0,0,1-6.47-1.652Z" transform="translate(189.028 34.93)" fill="#ffb8b8"/>
    <path id="Path_68" data-name="Path 68" d="M915.719,409.6a9.345,9.345,0,1,0-1.751-18.482,10.743,10.743,0,0,0-6.41-1.756,6.283,6.283,0,0,0-5.3,3.624,4.487,4.487,0,0,0,2.149,5.7,8.105,8.105,0,0,0,4.277.061,6.378,6.378,0,0,1,4.228.374c1.243.737,1.8,2.712.688,3.633a3.83,3.83,0,0,0-1.1,4.215A4.189,4.189,0,0,0,915.719,409.6Z" transform="translate(155.95 143.159)" fill="#2f2e41"/>
    <path id="Path_69" data-name="Path 69" d="M916.876,579.807l1.554,58.965a1.426,1.426,0,0,1-1.5,1.462l-5.118-.261a1.426,1.426,0,0,1-1.336-1.2l-6.088-38.3a.713.713,0,0,0-1.4-.044L894.747,637.3a1.426,1.426,0,0,1-1.87,1.033l-5.08-.31a1.427,1.427,0,0,1-.945-1.445l4.434-57.333Z" transform="translate(165.661 20.971)" fill="#3f3e50"/>
    <path id="Path_70" data-name="Path 70" d="M923.963,470.249A16.073,16.073,0,0,0,909.3,452.6c-3.858-.274-9.847-.372-11.822,4.685-5.948,15.233,4.464,14.863.877,28.061s-6.756,13.954-1.833,14.907,27.056,6.579,26.147-2.71C922.107,491.828,923.108,479.162,923.963,470.249Z" transform="translate(161.067 102.522)" fill="#ef8e73"/>
    <path id="Path_71" data-name="Path 71" d="M882.719,461.049h0a4.309,4.309,0,0,1,5.811,4.7l-2.8,17.472a17.074,17.074,0,0,1-3.661,8.134l-9.08,11.064a1.426,1.426,0,0,1-2.163.05l-2.157-2.4a1.427,1.427,0,0,1-.07-1.825l.635-.824a48.038,48.038,0,0,0,9.645-23.6L880,464.555A4.309,4.309,0,0,1,882.719,461.049Z" transform="translate(177.59 97.203)" fill="#ef8e73"/>
  </g>
</svg>
